HIERARCHY
ROOT Hips
{
 OFFSET 0.000000 0.000000 0.000000
 CHANNELS 6 Xposition Yposition Zposition Yrotation Xrotation Zrotation
 JOINT Chest
 {
  OFFSET 0.000000 9.585900 0.002600
  CHANNELS 3 Yrotation Xrotation Zrotation
  JOINT Chest2
  {
   OFFSET 0.000000 9.601200 -0.005300
   CHANNELS 3 Yrotation Xrotation Zrotation
   JOINT Chest3
   {
    OFFSET 0.000000 9.561800 0.000000
    CHANNELS 3 Yrotation Xrotation Zrotation
    JOINT Chest4
    {
     OFFSET 0.000000 9.552100 0.000000
     CHANNELS 3 Yrotation Xrotation Zrotation
     JOINT Neck
     {
      OFFSET 0.000000 14.453000 0.000000
      CHANNELS 3 Yrotation Xrotation Zrotation
      JOINT Head
      {
       OFFSET 0.000000 8.936500 -0.011300
       CHANNELS 3 Yrotation Xrotation Zrotation
       End Site
       {
        OFFSET 0.000000 17.073600 -0.006000
       }
      }
     }
     JOINT RightCollar
     {
      OFFSET -2.921100 9.558500 0.000000
      CHANNELS 3 Yrotation Xrotation Zrotation
      JOINT RightShoulder
      {
       OFFSET -13.519700 0.000000 0.000000
       CHANNELS 3 Yrotation Xrotation Zrotation
       JOINT RightElbow
       {
        OFFSET 0.000000 -29.696600 0.000000
        CHANNELS 3 Yrotation Xrotation Zrotation
        JOINT RightWrist
        {
         OFFSET 0.000000 -24.004700 0.000000
         CHANNELS 3 Yrotation Xrotation Zrotation
         End Site
         {
          OFFSET 0.000000 -17.728500 0.000000
         }
        }
       }
      }
     }
     JOINT LeftCollar
     {
      OFFSET 2.921100 9.558500 0.000000
      CHANNELS 3 Yrotation Xrotation Zrotation
      JOINT LeftShoulder
      {
       OFFSET 13.519700 0.000000 0.000000
       CHANNELS 3 Yrotation Xrotation Zrotation
       JOINT LeftElbow
       {
        OFFSET 0.000000 -29.696600 0.000000
        CHANNELS 3 Yrotation Xrotation Zrotation
        JOINT LeftWrist
        {
         OFFSET 0.000000 -24.004700 0.000000
         CHANNELS 3 Yrotation Xrotation Zrotation
         End Site
         {
          OFFSET 0.000000 -17.728500 0.000000
         }
        }
       }
      }
     }
    }
   }
  }
 }
 JOINT RightHip
 {
  OFFSET -7.771700 -0.012900 -0.001300
  CHANNELS 3 Yrotation Xrotation Zrotation
  JOINT RightKnee
  {
   OFFSET 0.000000 -40.869800 0.001200
   CHANNELS 3 Yrotation Xrotation Zrotation
   JOINT RightAnkle
   {
    OFFSET 0.000000 -39.717900 0.002100
    CHANNELS 3 Yrotation Xrotation Zrotation
    JOINT RightToe
    {
     OFFSET 0.000000 -4.965400 11.033500
     CHANNELS 3 Yrotation Xrotation Zrotation
     End Site
     {
      OFFSET 0.000000 -1.423100 5.872300
     }
    }
   }
  }
 }
 JOINT LeftHip
 {
  OFFSET 7.771700 -0.012900 -0.001300
  CHANNELS 3 Yrotation Xrotation Zrotation
  JOINT LeftKnee
  {
   OFFSET 0.000000 -40.869800 0.001200
   CHANNELS 3 Yrotation Xrotation Zrotation
   JOINT LeftAnkle
   {
    OFFSET 0.000000 -39.717900 0.002100
    CHANNELS 3 Yrotation Xrotation Zrotation
    JOINT LeftToe
    {
     OFFSET 0.000000 -4.965400 11.033500
     CHANNELS 3 Yrotation Xrotation Zrotation
     End Site
     {
      OFFSET 0.000000 -1.423100 5.872300
     }
    }
   }
  }
 }
}
MOTION
Frames: 15
Frame Time: 0.008333
-39.302745 62.081387 13.179402 176.426383 -52.122923 0.282521 2.905661 27.416362 1.049396 0.400133 4.774246 0.183549 0.661451 7.521072 0.327554 2.114096 22.212484 1.223600 0.749915 15.492866 -1.034767 1.776652 -7.001619 -2.204157 6.501395 5.048169 3.960072 0.586974 -13.211450 -12.096263 -128.936262 -53.952360 161.012576 14.703803 -3.275671 -24.010712 -10.069043 1.843415 -1.436380 -4.593720 -9.078732 17.295756 136.961059 -67.088654 -158.593239 5.755938 -7.657543 2.384686 3.418773 -14.886723 -6.752115 -1.247242 61.118453 -5.115758 1.675075 -7.552413 10.365647 0.211690 -0.517957 0.104764 -2.977133 -11.858268 1.834718 24.560629 76.615446 24.854557 0.536473 -11.831090 -3.476369 0.250751 0.640297 0.119882
-39.302425 62.082552 13.176910 176.417463 -52.119439 0.287470 2.899955 27.433941 1.034235 0.406678 4.763792 0.187677 0.658584 7.522439 0.323144 2.119915 22.206554 1.223913 0.777782 15.480945 -1.032680 1.898073 -7.051004 -2.227211 6.512266 5.042644 3.962291 0.588352 -13.202493 -12.094853 -128.865374 -54.065427 160.959128 14.721745 -3.238581 -23.939376 -10.073229 1.835773 -1.441952 -4.522083 -9.088409 17.274200 136.006888 -67.043547 -157.930588 5.857495 -7.571136 2.056678 3.423505 -14.889820 -6.747663 -1.242206 61.119980 -5.114021 1.671623 -7.548498 10.365940 0.211747 -0.522905 0.103496 -2.974953 -11.856932 1.849220 24.523076 76.619355 24.804762 0.525121 -11.839651 -3.466315 0.247882 0.642802 0.117047
-39.303581 62.082991 13.174787 176.416156 -52.109825 0.296487 2.894375 27.429635 1.021136 0.405308 4.766461 0.184308 0.656106 7.525864 0.319465 2.122636 22.201416 1.222184 0.805580 15.468973 -1.030477 2.017860 -7.102791 -2.247917 6.528848 5.039480 3.952101 0.577286 -13.201433 -12.078448 -128.827299 -54.123667 160.927601 14.733164 -3.122720 -23.832304 -10.078089 1.829926 -1.449186 -4.467815 -9.096280 17.260546 134.978005 -66.982014 -157.191600 5.967769 -7.479055 1.729224 3.426224 -14.897955 -6.754176 -1.219080 61.121940 -5.099532 1.662855 -7.548405 10.370169 0.203918 -0.524239 0.101096 -2.973133 -11.864660 1.844105 24.506071 76.619017 24.784824 0.522581 -11.840137 -3.462308 0.244400 0.641536 0.114210
-39.303435 62.083596 13.172508 176.415504 -52.100682 0.298446 2.892073 27.425329 1.014736 0.406142 4.764222 0.185488 0.651181 7.533838 0.309734 2.111867 22.211152 1.196090 0.870376 15.435909 -1.011455 2.119116 -7.153564 -2.256360 6.577260 5.028237 3.938734 0.542239 -13.210373 -12.037551 -128.785699 -54.181712 160.892221 14.743860 -2.991263 -23.706433 -10.067198 1.815184 -1.434670 -4.434089 -9.101406 17.260444 133.863953 -66.895904 -156.363013 6.089140 -7.377531 1.398394 3.425829 -14.906316 -6.754144 -1.211243 61.123145 -5.097036 1.664865 -7.543927 10.372428 0.208767 -0.524010 0.098769 -2.972685 -11.871448 1.845156 24.498096 76.619505 24.776241 0.520955 -11.842852 -3.461420 0.241498 0.640549 0.111786
-39.303696 62.084477 13.169830 176.419021 -52.093199 0.300314 2.888192 27.427340 1.005193 0.405383 4.764269 0.183489 0.649719 7.534088 0.306438 2.109401 22.216453 1.179357 0.923542 15.405068 -0.997691 2.220097 -7.208161 -2.265489 6.594936 5.013355 3.948871 0.538543 -13.197540 -12.036416 -128.755931 -54.230648 160.857092 14.755158 -2.847512 -23.559512 -10.066897 1.805261 -1.429482 -4.419581 -9.103325 17.274265 132.660842 -66.786552 -155.444392 6.221822 -7.275569 1.067316 3.422723 -14.913090 -6.756619 -1.205642 61.126754 -5.097982 1.664938 -7.541582 10.375321 0.208677 -0.527150 0.097651 -2.975810 -11.875992 1.843059 24.493783 76.619031 24.770612 0.515296 -11.847440 -3.462413 0.247167 0.642066 0.112388
-39.305128 62.084586 13.167480 176.418194 -52.079643 0.312326 2.889241 27.435462 0.986197 0.405211 4.764992 0.178900 0.649592 7.523195 0.310099 2.103991 22.217776 1.167493 0.978803 15.374748 -0.990595 2.317767 -7.266152 -2.269627 6.611621 5.000715 3.956614 0.516928 -13.171266 -12.038072 -128.714680 -54.266960 160.826396 14.765485 -2.694807 -23.394132 -10.070056 1.797948 -1.429501 -4.376261 -9.114361 17.267992 131.370057 -66.676780 -154.489428 6.359690 -7.185684 0.755537 3.426088 -14.927716 -6.768108 -1.201832 61.133917 -5.099274 1.665122 -7.541137 10.378829 0.206885 -0.532054 0.096948 -2.980633 -11.886459 1.836956 24.491767 76.617952 24.759388 0.505129 -11.854175 -3.461010 0.255454 0.646117 0.113962
-39.305259 62.084818 13.164878 176.419583 -52.066977 0.313900 2.887803 27.428699 0.979965 0.404707 4.771082 0.172846 0.648641 7.534729 0.295644 2.105308 22.205522 1.167634 1.036804 15.345250 -0.981388 2.418003 -7.327514 -2.274449 6.640037 4.994333 3.953770 0.483272 -13.167732 -12.021000 -128.619661 -54.318869 160.758681 14.758443 -2.531028 -23.214070 -10.071221 1.792470 -1.431285 -4.338725 -9.126509 17.262443 130.013082 -66.557114 -153.477334 6.503915 -7.114615 0.475160 3.426884 -14.941282 -6.772200 -1.201930 61.138496 -5.100621 1.674042 -7.536128 10.380785 0.206904 -0.535271 0.095668 -2.982396 -11.897519 1.837663 24.495290 76.619037 24.759726 0.502565 -11.857664 -3.458365 0.256477 0.646494 0.113092
-39.306007 62.085032 13.162041 176.422782 -52.054152 0.315980 2.884364 27.422590 0.970942 0.403776 4.770702 0.171478 0.648312 7.534428 0.293825 2.100040 22.212395 1.149374 1.133431 15.290918 -0.982595 2.478626 -7.367456 -2.252402 6.664262 4.982963 3.952177 0.448988 -13.161305 -12.003701 -128.422247 -54.367251 160.633657 14.707494 -2.356035 -23.019148 -10.071711 1.785843 -1.432168 -4.304587 -9.138796 17.258447 128.611217 -66.420799 -152.430465 6.665516 -7.062129 0.225067 3.428395 -14.955742 -6.777627 -1.204740 61.145605 -5.103160 1.674636 -7.530941 10.378439 0.207626 -0.538138 0.097840 -2.983775 -11.909462 1.834750 24.498137 76.619667 24.761369 0.501757 -11.857772 -3.456131 0.258452 0.644610 0.112102
-39.307654 62.085268 13.158970 176.428872 -52.041546 0.318831 2.875501 27.422658 0.953035 0.404645 4.764595 0.174292 0.648267 7.534470 0.291978 2.098958 22.218573 1.132395 1.177126 15.263345 -0.968133 2.590862 -7.433270 -2.256249 6.684662 4.972356 3.945275 0.411927 -13.155811 -11.978861 -128.047028 -54.414730 160.394326 14.589875 -2.188856 -22.803032 -10.073238 1.778703 -1.432895 -4.269486 -9.150638 17.252548 127.183515 -66.262655 -151.377548 6.851155 -7.025486 0.012782 3.432248 -14.968254 -6.786683 -1.213191 61.152956 -5.109859 1.674018 -7.533348 10.380659 0.202274 -0.530475 0.095443 -2.987654 -11.920442 1.829288 24.496263 76.619552 24.756693 0.499571 -11.859897 -3.456506 0.260555 0.645268 0.114300
-39.308223 62.085867 13.155591 176.432088 -52.031876 0.314976 2.880720 27.424893 0.950717 0.404431 4.764928 0.172031 0.647924 7.535111 0.288442 2.096549 22.215492 1.122336 1.198183 15.247597 -0.948291 2.726436 -7.507023 -2.270020 6.703954 4.963917 3.938877 0.371814 -13.150583 -11.951689 -127.434061 -54.465460 159.989449 14.392147 -2.053379 -22.567455 -10.072231 1.773830 -1.435341 -4.230486 -9.159708 17.246016 125.716862 -66.076897 -150.313259 7.058799 -7.008523 -0.148960 3.434885 -14.976730 -6.786826 -1.220751 61.157630 -5.114763 1.675669 -7.537741 10.383247 0.200574 -0.527880 0.093052 -2.990079 -11.927445 1.833372 24.503794 76.622825 24.763783 0.492220 -11.871016 -3.457892 0.265312 0.649484 0.116591
-39.309927 62.086084 13.152461 176.441198 -52.019613 0.310568 2.880425 27.437876 0.931018 0.402964 4.751335 0.180507 0.648461 7.532983 0.285871 2.097740 22.210165 1.124609 1.250968 15.220130 -0.945407 2.825751 -7.562588 -2.267009 6.719865 4.962310 3.921517 0.328503 -13.146593 -11.923306 -126.546343 -54.514447 159.391854 14.111581 -1.961159 -22.329188 -10.071813 1.772806 -1.451128 -4.198066 -9.160913 17.245433 124.196175 -65.858739 -149.204189 7.282828 -7.022353 -0.260303 3.433445 -14.988369 -6.791440 -1.218423 61.164118 -5.112375 1.672900 -7.543672 10.381971 0.200395 -0.526068 0.094404 -2.995268 -11.939089 1.830294 24.516617 76.624208 24.779334 0.484245 -11.874876 -3.461301 0.272414 0.649559 0.118512
-39.312289 62.086300 13.149401 176.448853 -52.007810 0.308937 2.873624 27.439339 0.915711 0.404247 4.762623 0.166587 0.652172 7.519683 0.294085 2.099291 22.204088 1.127913 1.301248 15.194185 -0.943410 2.928767 -7.619854 -2.264110 6.735354 4.959416 3.906028 0.284885 -13.145951 -11.900045 -125.357785 -54.552933 158.583224 13.760720 -1.920547 -22.109834 -10.075867 1.772346 -1.466640 -4.157179 -9.163296 17.245975 122.619512 -65.611524 -148.041934 7.524839 -7.069094 -0.329859 3.435346 -14.996771 -6.799733 -1.205032 61.166346 -5.098703 1.669982 -7.552964 10.382725 0.194827 -0.520248 0.094238 -2.999222 -11.950027 1.824473 24.528162 76.623586 24.793535 0.477532 -11.876009 -3.464581 0.276490 0.648321 0.120948
-39.314313 62.085735 13.147150 176.457356 -51.990738 0.302425 2.866732 27.436025 0.902921 0.405126 4.755433 0.171748 0.649883 7.524612 0.285384 2.096121 22.203673 1.118579 1.360107 15.162169 -0.931537 3.034067 -7.674516 -2.266207 6.760246 4.945319 3.898172 0.238176 -13.144182 -11.881844 -123.855687 -54.578746 157.554214 13.361035 -1.955970 -21.936597 -10.079092 1.769750 -1.474413 -4.060711 -9.167404 17.210510 121.028795 -65.345334 -146.902500 7.790130 -7.133750 -0.371542 3.434782 -15.011414 -6.803878 -1.196624 61.166690 -5.088094 1.667251 -7.557927 10.380061 0.194419 -0.515859 0.096217 -3.005607 -11.967401 1.822970 24.540722 76.624163 24.807111 0.476728 -11.877653 -3.465617 0.273500 0.648088 0.121870
-39.316548 62.084794 13.145411 176.466553 -51.971506 0.294902 2.859189 27.430351 0.888095 0.406299 4.748883 0.179154 0.643141 7.535865 0.266790 2.097333 22.196753 1.118373 1.419308 15.131311 -0.920639 3.143024 -7.729774 -2.271744 6.808156 4.920904 3.877811 0.160927 -13.135266 -11.852652 -122.043762 -54.583378 156.290691 12.934235 -2.111233 -21.803154 -10.077733 1.766023 -1.476803 -3.983447 -9.165808 17.181118 119.395205 -65.021965 -145.697047 8.066681 -7.205077 -0.386357 3.433141 -15.030586 -6.805053 -1.197468 61.169333 -5.089466 1.663336 -7.557616 10.381595 0.199345 -0.516296 0.096704 -3.014712 -11.988607 1.820292 24.568692 76.625850 24.834652 0.480329 -11.878237 -3.466322 0.267914 0.646611 0.120248
-39.318251 62.085319 13.142815 176.469702 -51.963975 0.287964 2.856747 27.436861 0.878012 0.406980 4.746307 0.175786 0.645359 7.529500 0.273620 2.087245 22.202030 1.099014 1.516462 15.084290 -0.919712 3.214379 -7.768897 -2.253313 6.850995 4.897129 3.888184 0.089729 -13.123463 -11.854921 -119.973195 -54.550506 154.806891 12.482588 -2.426928 -21.677172 -10.083587 1.767401 -1.484292 -3.912450 -9.163842 17.164766 117.687090 -64.640670 -144.423358 8.336349 -7.287264 -0.368366 3.432133 -15.037011 -6.801866 -1.201209 61.170241 -5.092756 1.663995 -7.555763 10.381906 0.201032 -0.518069 0.097024 -3.018993 -11.995996 1.823021 24.556349 76.632116 24.824919 0.484824 -11.879392 -3.468700 0.269763 0.643318 0.120658
